<?xml version="1.0" encoding="UTF-8" standalone="no"?>
<!DOCTYPE svg PUBLIC "-//W3C//DTD SVG 1.1//EN"
 "http://www.w3.org/Graphics/SVG/1.1/DTD/svg11.dtd">
<!-- Generated by graphviz version 14.1.2 (20260124.0452)
 -->
<!-- Title: G Pages: 1 -->
<svg width="1302pt" height="758pt"
 viewBox="0.00 0.00 1302.00 758.00" xmlns="http://www.w3.org/2000/svg" xmlns:xlink="http://www.w3.org/1999/xlink">
<g id="graph0" class="graph" transform="scale(1 1) rotate(0) translate(4 753.65)">
<title>G</title><style>.edge>path:hover{stroke-width:8}</style>
<polygon fill="white" stroke="none" points="-4,4 -4,-753.65 1298.49,-753.65 1298.49,4 -4,4"/>
<!-- flow_state -->
<g id="node1" class="node">
<title>flow_state</title><style>.edge>path:hover{stroke-width:8}</style>
<polygon fill="blue" stroke="black" points="881.99,-38.88 820.99,-38.88 820.99,-2.88 881.99,-2.88 881.99,-38.88"/>
<text xml:space="preserve" text-anchor="middle" x="851.49" y="-17" font-family="Helvetica,sans-Serif" font-size="10.00" fill="white">flow_state</text>
</g>
<!-- flow_state__version -->
<g id="node2" class="node">
<title>flow_state__version</title><style>.edge>path:hover{stroke-width:8}</style>
<ellipse fill="#ce3b3b" stroke="black" cx="976.49" cy="-99.32" rx="45.25" ry="21.57"/>
<text xml:space="preserve" text-anchor="middle" x="976.49" y="-101.07" font-family="Helvetica,sans-Serif" font-size="10.00" fill="#ffffff">flow_state.</text>
<text xml:space="preserve" text-anchor="middle" x="976.49" y="-89.82" font-family="Helvetica,sans-Serif" font-size="10.00" fill="#ffffff">_version</text>
</g>
<!-- flow_state__version&#45;&gt;flow_state -->
<g id="edge1" class="edge">
<title>flow_state__version&#45;&gt;flow_state</title><style>.edge>path:hover{stroke-width:8}</style>
<path fill="none" stroke="black" d="M949.36,-81.73C931.88,-71.04 908.88,-56.97 889.57,-45.16"/>
<polygon fill="#ce3b3b" stroke="black" points="891.51,-42.25 881.15,-40.01 887.86,-48.22 891.51,-42.25"/>
</g>
<!-- flow_state_cli -->
<g id="node9" class="node">
<title>flow_state_cli</title><style>.edge>path:hover{stroke-width:8}</style>
<ellipse fill="#964040" stroke="black" cx="982.49" cy="-20.88" rx="43.64" ry="18"/>
<text xml:space="preserve" text-anchor="middle" x="982.49" y="-17" font-family="Helvetica,sans-Serif" font-size="10.00" fill="#ffffff">flow_state.cli</text>
</g>
<!-- flow_state__version&#45;&gt;flow_state_cli -->
<g id="edge2" class="edge">
<title>flow_state__version&#45;&gt;flow_state_cli</title><style>.edge>path:hover{stroke-width:8}</style>
<path fill="none" stroke="black" d="M978.13,-77.43C978.78,-69.07 979.55,-59.3 980.25,-50.31"/>
<polygon fill="#ce3b3b" stroke="black" points="983.72,-50.88 981.01,-40.63 976.74,-50.33 983.72,-50.88"/>
</g>
<!-- flow_state_atmosphere -->
<g id="node3" class="node">
<title>flow_state_atmosphere</title><style>.edge>path:hover{stroke-width:8}</style>
<polygon fill="blue" stroke="black" points="598.99,-499.1 531.99,-499.1 531.99,-463.1 598.99,-463.1 598.99,-499.1"/>
<text xml:space="preserve" text-anchor="middle" x="565.49" y="-482.85" font-family="Helvetica,sans-Serif" font-size="10.00" fill="white">flow_state.</text>
<text xml:space="preserve" text-anchor="middle" x="565.49" y="-471.6" font-family="Helvetica,sans-Serif" font-size="10.00" fill="white">atmosphere</text>
</g>
<!-- flow_state_atmosphere&#45;&gt;flow_state -->
<g id="edge3" class="edge">
<title>flow_state_atmosphere&#45;&gt;flow_state</title><style>.edge>path:hover{stroke-width:8}</style>
<path fill="none" stroke="black" d="M531.64,-476.65C481.2,-470.56 392.32,-455.75 393.49,-427.1"/>
<path fill="none" stroke="black" d="M29.49,-98.32C68.73,-30.05 646.29,-22.66 809.07,-21.93"/>
<polygon fill="blue" stroke="black" points="809,-25.43 818.98,-21.9 808.97,-18.43 809,-25.43"/>
<path fill="none" stroke="black" d="M393.49,-359.58C312.87,-226.04 153.85,-410.09 48.49,-295.06 -10.25,-230.93 -13.85,-175.71 29.49,-100.32"/>
<path fill="none" stroke="black" d="M393.49,-426.1C394.65,-397.45 408.32,-386.13 393.49,-361.58"/>
</g>
<!-- flow_state_io_read_config -->
<g id="node18" class="node">
<title>flow_state_io_read_config</title><style>.edge>path:hover{stroke-width:8}</style>
<polygon fill="blue" stroke="black" points="1001.61,-381.46 935.36,-381.46 935.36,-339.71 1001.61,-339.71 1001.61,-381.46"/>
<text xml:space="preserve" text-anchor="middle" x="968.49" y="-367.96" font-family="Helvetica,sans-Serif" font-size="10.00" fill="white">flow_state.</text>
<text xml:space="preserve" text-anchor="middle" x="968.49" y="-356.71" font-family="Helvetica,sans-Serif" font-size="10.00" fill="white">io.</text>
<text xml:space="preserve" text-anchor="middle" x="968.49" y="-345.46" font-family="Helvetica,sans-Serif" font-size="10.00" fill="white">read_config</text>
</g>
<!-- flow_state_atmosphere&#45;&gt;flow_state_io_read_config -->
<g id="edge4" class="edge">
<title>flow_state_atmosphere&#45;&gt;flow_state_io_read_config</title><style>.edge>path:hover{stroke-width:8}</style>
<path fill="none" stroke="black" d="M393.49,-426.1C395.54,-375.54 797.49,-397.93 847.49,-390.1 873.12,-386.09 901.35,-379.56 924.1,-373.76"/>
<polygon fill="blue" stroke="black" points="924.85,-377.18 933.65,-371.28 923.09,-370.4 924.85,-377.18"/>
</g>
<!-- flow_state_solvers -->
<g id="node23" class="node">
<title>flow_state_solvers</title><style>.edge>path:hover{stroke-width:8}</style>
<polygon fill="blue" stroke="black" points="836.49,-117.32 772.49,-117.32 772.49,-81.32 836.49,-81.32 836.49,-117.32"/>
<text xml:space="preserve" text-anchor="middle" x="804.49" y="-101.07" font-family="Helvetica,sans-Serif" font-size="10.00" fill="white">flow_state.</text>
<text xml:space="preserve" text-anchor="middle" x="804.49" y="-89.82" font-family="Helvetica,sans-Serif" font-size="10.00" fill="white">solvers</text>
</g>
<!-- flow_state_atmosphere&#45;&gt;flow_state_solvers -->
<g id="edge5" class="edge">
<title>flow_state_atmosphere&#45;&gt;flow_state_solvers</title><style>.edge>path:hover{stroke-width:8}</style>
<path fill="none" stroke="black" d="M393.49,-359.58C301.58,-207.9 637.76,-130.51 760.94,-107.67"/>
<polygon fill="blue" stroke="black" points="761.47,-111.13 770.68,-105.9 760.22,-104.25 761.47,-111.13"/>
</g>
<!-- flow_state_atmosphere_CIRA86 -->
<g id="node4" class="node">
<title>flow_state_atmosphere_CIRA86</title><style>.edge>path:hover{stroke-width:8}</style>
<polygon fill="blue" stroke="black" points="751.49,-654.6 681.49,-654.6 681.49,-612.85 751.49,-612.85 751.49,-654.6"/>
<text xml:space="preserve" text-anchor="middle" x="716.49" y="-641.1" font-family="Helvetica,sans-Serif" font-size="10.00" fill="white">flow_state.</text>
<text xml:space="preserve" text-anchor="middle" x="716.49" y="-629.85" font-family="Helvetica,sans-Serif" font-size="10.00" fill="white">atmosphere.</text>
<text xml:space="preserve" text-anchor="middle" x="716.49" y="-618.6" font-family="Helvetica,sans-Serif" font-size="10.00" fill="white">CIRA86</text>
</g>
<!-- flow_state_atmosphere_CIRA86&#45;&gt;flow_state_io_read_config -->
<g id="edge8" class="edge">
<title>flow_state_atmosphere_CIRA86&#45;&gt;flow_state_io_read_config</title><style>.edge>path:hover{stroke-width:8}</style>
<path fill="none" stroke="black" d="M735.02,-612.79C779.15,-565.31 890.59,-445.4 941.89,-390.2"/>
<polygon fill="blue" stroke="black" points="944.31,-392.73 948.56,-383.03 939.19,-387.97 944.31,-392.73"/>
</g>
<!-- flow_state_atmosphere_cira86 -->
<g id="node5" class="node">
<title>flow_state_atmosphere_cira86</title><style>.edge>path:hover{stroke-width:8}</style>
<polygon fill="blue" stroke="black" points="663.49,-654.6 593.49,-654.6 593.49,-612.85 663.49,-612.85 663.49,-654.6"/>
<text xml:space="preserve" text-anchor="middle" x="628.49" y="-641.1" font-family="Helvetica,sans-Serif" font-size="10.00" fill="white">flow_state.</text>
<text xml:space="preserve" text-anchor="middle" x="628.49" y="-629.85" font-family="Helvetica,sans-Serif" font-size="10.00" fill="white">atmosphere.</text>
<text xml:space="preserve" text-anchor="middle" x="628.49" y="-618.6" font-family="Helvetica,sans-Serif" font-size="10.00" fill="white">cira86</text>
</g>
<!-- flow_state_atmosphere_cira86&#45;&gt;flow_state_atmosphere -->
<g id="edge6" class="edge">
<title>flow_state_atmosphere_cira86&#45;&gt;flow_state_atmosphere</title><style>.edge>path:hover{stroke-width:8}</style>
<path fill="none" stroke="black" d="M627.47,-612.37C625.78,-591.96 621.32,-560.07 609.49,-535.1 604.82,-525.26 597.91,-515.72 590.94,-507.5"/>
<polygon fill="blue" stroke="black" points="593.75,-505.39 584.46,-500.28 588.54,-510.06 593.75,-505.39"/>
</g>
<!-- flow_state_atmosphere_registry -->
<g id="node7" class="node">
<title>flow_state_atmosphere_registry</title><style>.edge>path:hover{stroke-width:8}</style>
<polygon fill="blue" stroke="black" points="600.49,-576.85 530.49,-576.85 530.49,-535.1 600.49,-535.1 600.49,-576.85"/>
<text xml:space="preserve" text-anchor="middle" x="565.49" y="-563.35" font-family="Helvetica,sans-Serif" font-size="10.00" fill="white">flow_state.</text>
<text xml:space="preserve" text-anchor="middle" x="565.49" y="-552.1" font-family="Helvetica,sans-Serif" font-size="10.00" fill="white">atmosphere.</text>
<text xml:space="preserve" text-anchor="middle" x="565.49" y="-540.85" font-family="Helvetica,sans-Serif" font-size="10.00" fill="white">registry</text>
</g>
<!-- flow_state_atmosphere_cira86&#45;&gt;flow_state_atmosphere_registry -->
<g id="edge7" class="edge">
<title>flow_state_atmosphere_cira86&#45;&gt;flow_state_atmosphere_registry</title><style>.edge>path:hover{stroke-width:8}</style>
<path fill="none" stroke="black" d="M611.6,-612.43C604.9,-604.36 597.05,-594.93 589.75,-586.16"/>
<polygon fill="blue" stroke="black" points="592.47,-583.95 583.38,-578.5 587.09,-588.42 592.47,-583.95"/>
</g>
<!-- flow_state_atmosphere_core -->
<g id="node6" class="node">
<title>flow_state_atmosphere_core</title><style>.edge>path:hover{stroke-width:8}</style>
<ellipse fill="#f31616" stroke="black" cx="565.49" cy="-720.13" rx="49.5" ry="29.52"/>
<text xml:space="preserve" text-anchor="middle" x="565.49" y="-727.5" font-family="Helvetica,sans-Serif" font-size="10.00" fill="#ffffff">flow_state.</text>
<text xml:space="preserve" text-anchor="middle" x="565.49" y="-716.25" font-family="Helvetica,sans-Serif" font-size="10.00" fill="#ffffff">atmosphere.</text>
<text xml:space="preserve" text-anchor="middle" x="565.49" y="-705" font-family="Helvetica,sans-Serif" font-size="10.00" fill="#ffffff">core</text>
</g>
<!-- flow_state_atmosphere_core&#45;&gt;flow_state_atmosphere -->
<g id="edge9" class="edge">
<title>flow_state_atmosphere_core&#45;&gt;flow_state_atmosphere</title><style>.edge>path:hover{stroke-width:8}</style>
<path fill="none" stroke="black" d="M439.49,-554.98C451.1,-520.49 489.53,-501.74 520.92,-491.94"/>
<polygon fill="#f31616" stroke="black" points="521.58,-495.39 530.22,-489.25 519.64,-488.66 521.58,-495.39"/>
<path fill="none" stroke="black" d="M523.65,-703.81C500.94,-693.36 474.34,-677.27 458.49,-654.6 433.16,-618.38 425.38,-598.87 439.49,-556.98"/>
</g>
<!-- flow_state_atmosphere_core&#45;&gt;flow_state_atmosphere_CIRA86 -->
<g id="edge10" class="edge">
<title>flow_state_atmosphere_core&#45;&gt;flow_state_atmosphere_CIRA86</title><style>.edge>path:hover{stroke-width:8}</style>
<path fill="none" stroke="black" d="M600.89,-699.34C621.83,-687.63 648.57,-672.69 671.05,-660.12"/>
<polygon fill="#f31616" stroke="black" points="672.7,-663.21 679.72,-655.28 669.29,-657.1 672.7,-663.21"/>
</g>
<!-- flow_state_atmosphere_core&#45;&gt;flow_state_atmosphere_cira86 -->
<g id="edge11" class="edge">
<title>flow_state_atmosphere_core&#45;&gt;flow_state_atmosphere_cira86</title><style>.edge>path:hover{stroke-width:8}</style>
<path fill="none" stroke="black" d="M585.08,-692.88C591.9,-683.74 599.6,-673.42 606.61,-664.04"/>
<polygon fill="#f31616" stroke="black" points="609.23,-666.37 612.41,-656.27 603.62,-662.19 609.23,-666.37"/>
</g>
<!-- flow_state_atmosphere_core&#45;&gt;flow_state_atmosphere_registry -->
<g id="edge12" class="edge">
<title>flow_state_atmosphere_core&#45;&gt;flow_state_atmosphere_registry</title><style>.edge>path:hover{stroke-width:8}</style>
<path fill="none" stroke="black" d="M565.49,-690.14C565.49,-661.48 565.49,-617.75 565.49,-588.3"/>
<polygon fill="#f31616" stroke="black" points="568.99,-588.53 565.49,-578.53 561.99,-588.53 568.99,-588.53"/>
</g>
<!-- flow_state_atmosphere_ussa76 -->
<g id="node8" class="node">
<title>flow_state_atmosphere_ussa76</title><style>.edge>path:hover{stroke-width:8}</style>
<polygon fill="blue" stroke="black" points="537.49,-654.6 467.49,-654.6 467.49,-612.85 537.49,-612.85 537.49,-654.6"/>
<text xml:space="preserve" text-anchor="middle" x="502.49" y="-641.1" font-family="Helvetica,sans-Serif" font-size="10.00" fill="white">flow_state.</text>
<text xml:space="preserve" text-anchor="middle" x="502.49" y="-629.85" font-family="Helvetica,sans-Serif" font-size="10.00" fill="white">atmosphere.</text>
<text xml:space="preserve" text-anchor="middle" x="502.49" y="-618.6" font-family="Helvetica,sans-Serif" font-size="10.00" fill="white">ussa76</text>
</g>
<!-- flow_state_atmosphere_core&#45;&gt;flow_state_atmosphere_ussa76 -->
<g id="edge13" class="edge">
<title>flow_state_atmosphere_core&#45;&gt;flow_state_atmosphere_ussa76</title><style>.edge>path:hover{stroke-width:8}</style>
<path fill="none" stroke="black" d="M545.9,-692.88C539.07,-683.74 531.37,-673.42 524.37,-664.04"/>
<polygon fill="#f31616" stroke="black" points="527.35,-662.19 518.57,-656.27 521.74,-666.37 527.35,-662.19"/>
</g>
<!-- flow_state_atmosphere_registry&#45;&gt;flow_state_atmosphere -->
<g id="edge14" class="edge">
<title>flow_state_atmosphere_registry&#45;&gt;flow_state_atmosphere</title><style>.edge>path:hover{stroke-width:8}</style>
<path fill="none" stroke="black" d="M565.49,-534.68C565.49,-527.3 565.49,-518.8 565.49,-510.83"/>
<polygon fill="blue" stroke="black" points="568.99,-510.85 565.49,-500.85 561.99,-510.85 568.99,-510.85"/>
</g>
<!-- flow_state_atmosphere_ussa76&#45;&gt;flow_state_atmosphere -->
<g id="edge15" class="edge">
<title>flow_state_atmosphere_ussa76&#45;&gt;flow_state_atmosphere</title><style>.edge>path:hover{stroke-width:8}</style>
<path fill="none" stroke="black" d="M468.63,-612.62C450.04,-598.73 432.12,-578.86 439.49,-556.98"/>
</g>
<!-- flow_state_atmosphere_ussa76&#45;&gt;flow_state_atmosphere_registry -->
<g id="edge16" class="edge">
<title>flow_state_atmosphere_ussa76&#45;&gt;flow_state_atmosphere_registry</title><style>.edge>path:hover{stroke-width:8}</style>
<path fill="none" stroke="black" d="M519.37,-612.43C526.08,-604.36 533.92,-594.93 541.22,-586.16"/>
<polygon fill="blue" stroke="black" points="543.89,-588.42 547.59,-578.5 538.5,-583.95 543.89,-588.42"/>
</g>
<!-- flow_state_core -->
<g id="node10" class="node">
<title>flow_state_core</title><style>.edge>path:hover{stroke-width:8}</style>
<polygon fill="blue" stroke="black" points="1140.49,-196.45 1076.49,-196.45 1076.49,-160.45 1140.49,-160.45 1140.49,-196.45"/>
<text xml:space="preserve" text-anchor="middle" x="1108.49" y="-180.2" font-family="Helvetica,sans-Serif" font-size="10.00" fill="white">flow_state.</text>
<text xml:space="preserve" text-anchor="middle" x="1108.49" y="-168.95" font-family="Helvetica,sans-Serif" font-size="10.00" fill="white">core</text>
</g>
<!-- flow_state_core&#45;&gt;flow_state -->
<g id="edge17" class="edge">
<title>flow_state_core&#45;&gt;flow_state</title><style>.edge>path:hover{stroke-width:8}</style>
<path fill="none" stroke="black" d="M1076.23,-169.81C1030.18,-158.55 948.29,-137.07 922.49,-120.88 911.94,-114.27 912.78,-108.59 903.49,-100.32"/>
</g>
<!-- flow_state_io_legacy_dat -->
<g id="node16" class="node">
<title>flow_state_io_legacy_dat</title><style>.edge>path:hover{stroke-width:8}</style>
<polygon fill="blue" stroke="black" points="1212.49,-41.75 1148.49,-41.75 1148.49,0 1212.49,0 1212.49,-41.75"/>
<text xml:space="preserve" text-anchor="middle" x="1180.49" y="-28.25" font-family="Helvetica,sans-Serif" font-size="10.00" fill="white">flow_state.</text>
<text xml:space="preserve" text-anchor="middle" x="1180.49" y="-17" font-family="Helvetica,sans-Serif" font-size="10.00" fill="white">io.</text>
<text xml:space="preserve" text-anchor="middle" x="1180.49" y="-5.75" font-family="Helvetica,sans-Serif" font-size="10.00" fill="white">legacy_dat</text>
</g>
<!-- flow_state_core&#45;&gt;flow_state_io_legacy_dat -->
<g id="edge18" class="edge">
<title>flow_state_core&#45;&gt;flow_state_io_legacy_dat</title><style>.edge>path:hover{stroke-width:8}</style>
<path fill="none" stroke="black" d="M1116.47,-160.21C1128.51,-134.19 1151.49,-84.53 1166.39,-52.33"/>
<polygon fill="blue" stroke="black" points="1169.45,-54.06 1170.47,-43.51 1163.1,-51.12 1169.45,-54.06"/>
</g>
<!-- flow_state_io_print_summary -->
<g id="node17" class="node">
<title>flow_state_io_print_summary</title><style>.edge>path:hover{stroke-width:8}</style>
<polygon fill="blue" stroke="black" points="1130.74,-41.75 1050.24,-41.75 1050.24,0 1130.74,0 1130.74,-41.75"/>
<text xml:space="preserve" text-anchor="middle" x="1090.49" y="-28.25" font-family="Helvetica,sans-Serif" font-size="10.00" fill="white">flow_state.</text>
<text xml:space="preserve" text-anchor="middle" x="1090.49" y="-17" font-family="Helvetica,sans-Serif" font-size="10.00" fill="white">io.</text>
<text xml:space="preserve" text-anchor="middle" x="1090.49" y="-5.75" font-family="Helvetica,sans-Serif" font-size="10.00" fill="white">print_summary</text>
</g>
<!-- flow_state_core&#45;&gt;flow_state_io_print_summary -->
<g id="edge19" class="edge">
<title>flow_state_core&#45;&gt;flow_state_io_print_summary</title><style>.edge>path:hover{stroke-width:8}</style>
<path fill="none" stroke="black" d="M1105.19,-148.91C1102.05,-121.84 1097.36,-81.26 1094.12,-53.28"/>
<polygon fill="blue" stroke="black" points="1101.69,-149.17 1106.32,-158.7 1108.65,-148.37 1101.69,-149.17"/>
<polygon fill="blue" stroke="black" points="1097.63,-53.18 1093.01,-43.64 1090.68,-53.98 1097.63,-53.18"/>
</g>
<!-- flow_state_io_write_data -->
<g id="node19" class="node">
<title>flow_state_io_write_data</title><style>.edge>path:hover{stroke-width:8}</style>
<polygon fill="blue" stroke="black" points="1294.49,-41.75 1230.49,-41.75 1230.49,0 1294.49,0 1294.49,-41.75"/>
<text xml:space="preserve" text-anchor="middle" x="1262.49" y="-28.25" font-family="Helvetica,sans-Serif" font-size="10.00" fill="white">flow_state.</text>
<text xml:space="preserve" text-anchor="middle" x="1262.49" y="-17" font-family="Helvetica,sans-Serif" font-size="10.00" fill="white">io.</text>
<text xml:space="preserve" text-anchor="middle" x="1262.49" y="-5.75" font-family="Helvetica,sans-Serif" font-size="10.00" fill="white">write_data</text>
</g>
<!-- flow_state_core&#45;&gt;flow_state_io_write_data -->
<g id="edge20" class="edge">
<title>flow_state_core&#45;&gt;flow_state_io_write_data</title><style>.edge>path:hover{stroke-width:8}</style>
<path fill="none" stroke="black" d="M1125.56,-160.21C1151.87,-133.63 1202.61,-82.36 1234.39,-50.26"/>
<polygon fill="blue" stroke="black" points="1236.81,-52.79 1241.36,-43.22 1231.84,-47.86 1236.81,-52.79"/>
</g>
<!-- flow_state_core&#45;&gt;flow_state_solvers -->
<g id="edge21" class="edge">
<title>flow_state_core&#45;&gt;flow_state_solvers</title><style>.edge>path:hover{stroke-width:8}</style>
<path fill="none" stroke="black" d="M1076.24,-169.27C1021.29,-155.33 909.47,-126.95 847.77,-111.3"/>
<polygon fill="blue" stroke="black" points="848.88,-107.97 838.33,-108.9 847.16,-114.75 848.88,-107.97"/>
</g>
<!-- flow_state_gas -->
<g id="node11" class="node">
<title>flow_state_gas</title><style>.edge>path:hover{stroke-width:8}</style>
<polygon fill="blue" stroke="black" points="251.36,-196.45 171.61,-196.45 171.61,-160.45 251.36,-160.45 251.36,-196.45"/>
<text xml:space="preserve" text-anchor="middle" x="211.49" y="-174.58" font-family="Helvetica,sans-Serif" font-size="10.00" fill="white">flow_state.gas</text>
</g>
<!-- flow_state_gas&#45;&gt;flow_state_solvers -->
<g id="edge22" class="edge">
<title>flow_state_gas&#45;&gt;flow_state_solvers</title><style>.edge>path:hover{stroke-width:8}</style>
<path fill="none" stroke="black" d="M251.78,-172.21C358.8,-158.29 649.55,-120.47 760.58,-106.03"/>
<polygon fill="blue" stroke="black" points="761.02,-109.5 770.49,-104.74 760.12,-102.56 761.02,-109.5"/>
</g>
<!-- flow_state_gas_equilibrium -->
<g id="node12" class="node">
<title>flow_state_gas_equilibrium</title><style>.edge>path:hover{stroke-width:8}</style>
<ellipse fill="#c24747" stroke="black" cx="211.49" cy="-265.54" rx="45.25" ry="29.52"/>
<text xml:space="preserve" text-anchor="middle" x="211.49" y="-272.91" font-family="Helvetica,sans-Serif" font-size="10.00" fill="#ffffff">flow_state.</text>
<text xml:space="preserve" text-anchor="middle" x="211.49" y="-261.66" font-family="Helvetica,sans-Serif" font-size="10.00" fill="#ffffff">gas.</text>
<text xml:space="preserve" text-anchor="middle" x="211.49" y="-250.41" font-family="Helvetica,sans-Serif" font-size="10.00" fill="#ffffff">equilibrium</text>
</g>
<!-- flow_state_gas_equilibrium&#45;&gt;flow_state_gas -->
<g id="edge23" class="edge">
<title>flow_state_gas_equilibrium&#45;&gt;flow_state_gas</title><style>.edge>path:hover{stroke-width:8}</style>
<path fill="none" stroke="black" d="M211.49,-235.73C211.49,-226.85 211.49,-217.07 211.49,-208.19"/>
<polygon fill="#c24747" stroke="black" points="214.99,-208.32 211.49,-198.32 207.99,-208.32 214.99,-208.32"/>
</g>
<!-- flow_state_gas_park -->
<g id="node13" class="node">
<title>flow_state_gas_park</title><style>.edge>path:hover{stroke-width:8}</style>
<ellipse fill="#c24747" stroke="black" cx="320.49" cy="-265.54" rx="45.25" ry="29.52"/>
<text xml:space="preserve" text-anchor="middle" x="320.49" y="-272.91" font-family="Helvetica,sans-Serif" font-size="10.00" fill="#ffffff">flow_state.</text>
<text xml:space="preserve" text-anchor="middle" x="320.49" y="-261.66" font-family="Helvetica,sans-Serif" font-size="10.00" fill="#ffffff">gas.</text>
<text xml:space="preserve" text-anchor="middle" x="320.49" y="-250.41" font-family="Helvetica,sans-Serif" font-size="10.00" fill="#ffffff">park</text>
</g>
<!-- flow_state_gas_park&#45;&gt;flow_state_gas -->
<g id="edge24" class="edge">
<title>flow_state_gas_park&#45;&gt;flow_state_gas</title><style>.edge>path:hover{stroke-width:8}</style>
<path fill="none" stroke="black" d="M291.85,-242.18C276.66,-230.33 257.99,-215.75 242.47,-203.63"/>
<polygon fill="#c24747" stroke="black" points="244.97,-201.15 234.94,-197.75 240.66,-206.67 244.97,-201.15"/>
</g>
<!-- flow_state_gas_perfect -->
<g id="node14" class="node">
<title>flow_state_gas_perfect</title><style>.edge>path:hover{stroke-width:8}</style>
<ellipse fill="#c24747" stroke="black" cx="102.49" cy="-265.54" rx="45.25" ry="29.52"/>
<text xml:space="preserve" text-anchor="middle" x="102.49" y="-272.91" font-family="Helvetica,sans-Serif" font-size="10.00" fill="#ffffff">flow_state.</text>
<text xml:space="preserve" text-anchor="middle" x="102.49" y="-261.66" font-family="Helvetica,sans-Serif" font-size="10.00" fill="#ffffff">gas.</text>
<text xml:space="preserve" text-anchor="middle" x="102.49" y="-250.41" font-family="Helvetica,sans-Serif" font-size="10.00" fill="#ffffff">perfect</text>
</g>
<!-- flow_state_gas_perfect&#45;&gt;flow_state_gas -->
<g id="edge25" class="edge">
<title>flow_state_gas_perfect&#45;&gt;flow_state_gas</title><style>.edge>path:hover{stroke-width:8}</style>
<path fill="none" stroke="black" d="M131.13,-242.18C146.31,-230.33 164.98,-215.75 180.51,-203.63"/>
<polygon fill="#c24747" stroke="black" points="182.31,-206.67 188.04,-197.75 178,-201.15 182.31,-206.67"/>
</g>
<!-- flow_state_io -->
<g id="node15" class="node">
<title>flow_state_io</title><style>.edge>path:hover{stroke-width:8}</style>
<polygon fill="blue" stroke="black" points="1148.24,-283.54 1076.74,-283.54 1076.74,-247.54 1148.24,-247.54 1148.24,-283.54"/>
<text xml:space="preserve" text-anchor="middle" x="1112.49" y="-261.66" font-family="Helvetica,sans-Serif" font-size="10.00" fill="white">flow_state.io</text>
</g>
<!-- flow_state_io&#45;&gt;flow_state -->
<g id="edge26" class="edge">
<title>flow_state_io&#45;&gt;flow_state</title><style>.edge>path:hover{stroke-width:8}</style>
<path fill="none" stroke="black" d="M1095.98,-247.42C1073.66,-224.88 1031.99,-184.83 991.49,-156.88 963.02,-137.24 949.96,-141.9 922.49,-120.88 912.6,-113.32 912.78,-108.59 903.49,-100.32"/>
<path fill="none" stroke="black" d="M903.49,-98.32C887.79,-84.47 874.59,-64.89 865.42,-49.01"/>
<polygon fill="blue" stroke="black" points="868.63,-47.58 860.72,-40.53 862.5,-50.98 868.63,-47.58"/>
</g>
<!-- flow_state_io&#45;&gt;flow_state_cli -->
<g id="edge27" class="edge">
<title>flow_state_io&#45;&gt;flow_state_cli</title><style>.edge>path:hover{stroke-width:8}</style>
<path fill="none" stroke="black" d="M1126.51,-247.05C1142,-225.47 1163.07,-187.83 1149.49,-156.88 1124.82,-100.67 1062.79,-60.91 1021.67,-39.7"/>
<polygon fill="blue" stroke="black" points="1023.31,-36.61 1012.8,-35.26 1020.18,-42.87 1023.31,-36.61"/>
</g>
<!-- flow_state_io&#45;&gt;flow_state_core -->
<g id="edge28" class="edge">
<title>flow_state_io&#45;&gt;flow_state_core</title><style>.edge>path:hover{stroke-width:8}</style>
<path fill="none" stroke="black" d="M1111.68,-247.32C1111.15,-236.09 1110.45,-221.16 1109.84,-208.17"/>
<polygon fill="blue" stroke="black" points="1113.35,-208.27 1109.38,-198.45 1106.35,-208.6 1113.35,-208.27"/>
</g>
<!-- flow_state_io_legacy_dat&#45;&gt;flow_state_io -->
<g id="edge29" class="edge">
<title>flow_state_io_legacy_dat&#45;&gt;flow_state_io</title><style>.edge>path:hover{stroke-width:8}</style>
<path fill="none" stroke="black" d="M1205.8,-42.21C1218.16,-53.83 1231.89,-69.64 1239.07,-87.55"/>
<polygon fill="blue" stroke="black" points="1235.67,-88.4 1242.03,-96.87 1242.35,-86.28 1235.67,-88.4"/>
</g>
<!-- flow_state_io_print_summary&#45;&gt;flow_state_io -->
<g id="edge31" class="edge">
<title>flow_state_io_print_summary&#45;&gt;flow_state_io</title><style>.edge>path:hover{stroke-width:8}</style>
<path fill="none" stroke="black" d="M1242.49,-100.32C1264.91,-162.77 1189.3,-219.64 1144.03,-247.15"/>
<path fill="none" stroke="black" d="M1130.93,-38.79C1166.52,-54.1 1215.57,-76.33 1234.65,-90.31"/>
<polygon fill="blue" stroke="black" points="1231.93,-92.53 1241.43,-97.23 1236.94,-87.64 1231.93,-92.53"/>
</g>
<!-- flow_state_io_read_config&#45;&gt;flow_state_cli -->
<g id="edge32" class="edge">
<title>flow_state_io_read_config&#45;&gt;flow_state_cli</title><style>.edge>path:hover{stroke-width:8}</style>
<path fill="none" stroke="black" d="M995.37,-339.4C1008.3,-327.99 1022.48,-312.51 1029.49,-295.06 1065.45,-205.42 1064.05,-168.32 1030.49,-77.75 1026.04,-65.75 1017.74,-54.6 1009.28,-45.47"/>
<polygon fill="blue" stroke="black" points="1011.83,-43.07 1002.3,-38.44 1006.86,-48 1011.83,-43.07"/>
</g>
<!-- flow_state_io_read_config&#45;&gt;flow_state_io -->
<g id="edge33" class="edge">
<title>flow_state_io_read_config&#45;&gt;flow_state_io</title><style>.edge>path:hover{stroke-width:8}</style>
<path fill="none" stroke="black" d="M999.73,-339.39C1022.17,-324.9 1052.48,-305.31 1076.02,-290.1"/>
<polygon fill="blue" stroke="black" points="1077.89,-293.06 1084.39,-284.7 1074.09,-287.18 1077.89,-293.06"/>
</g>
<!-- flow_state_io_write_data&#45;&gt;flow_state_io -->
<g id="edge34" class="edge">
<title>flow_state_io_write_data&#45;&gt;flow_state_io</title><style>.edge>path:hover{stroke-width:8}</style>
<path fill="none" stroke="black" d="M1251.66,-42.24C1246.16,-54.59 1240.71,-71 1241.1,-86.9"/>
<polygon fill="blue" stroke="black" points="1237.62,-87.31 1242.3,-96.81 1244.57,-86.46 1237.62,-87.31"/>
</g>
<!-- flow_state_isentropic -->
<g id="node20" class="node">
<title>flow_state_isentropic</title><style>.edge>path:hover{stroke-width:8}</style>
<ellipse fill="#ce3b3b" stroke="black" cx="102.49" cy="-178.45" rx="45.25" ry="21.57"/>
<text xml:space="preserve" text-anchor="middle" x="102.49" y="-180.2" font-family="Helvetica,sans-Serif" font-size="10.00" fill="#ffffff">flow_state.</text>
<text xml:space="preserve" text-anchor="middle" x="102.49" y="-168.95" font-family="Helvetica,sans-Serif" font-size="10.00" fill="#ffffff">isentropic</text>
</g>
<!-- flow_state_isentropic&#45;&gt;flow_state -->
<g id="edge35" class="edge">
<title>flow_state_isentropic&#45;&gt;flow_state</title><style>.edge>path:hover{stroke-width:8}</style>
<path fill="none" stroke="black" d="M71.21,-162.75C45.4,-148.44 15.15,-125.25 29.49,-100.32"/>
</g>
<!-- flow_state_isentropic&#45;&gt;flow_state_solvers -->
<g id="edge36" class="edge">
<title>flow_state_isentropic&#45;&gt;flow_state_solvers</title><style>.edge>path:hover{stroke-width:8}</style>
<path fill="none" stroke="black" d="M136.99,-164.03C145.23,-161.27 154.09,-158.67 162.49,-156.88 383.81,-109.93 656.04,-101.86 760.68,-100.54"/>
<polygon fill="#ce3b3b" stroke="black" points="760.54,-104.04 770.5,-100.43 760.46,-97.04 760.54,-104.04"/>
</g>
<!-- flow_state_math_utils -->
<g id="node21" class="node">
<title>flow_state_math_utils</title><style>.edge>path:hover{stroke-width:8}</style>
<polygon fill="blue" stroke="black" points="836.49,-196.45 772.49,-196.45 772.49,-160.45 836.49,-160.45 836.49,-196.45"/>
<text xml:space="preserve" text-anchor="middle" x="804.49" y="-180.2" font-family="Helvetica,sans-Serif" font-size="10.00" fill="white">flow_state.</text>
<text xml:space="preserve" text-anchor="middle" x="804.49" y="-168.95" font-family="Helvetica,sans-Serif" font-size="10.00" fill="white">math_utils</text>
</g>
<!-- flow_state_math_utils&#45;&gt;flow_state_solvers -->
<g id="edge37" class="edge">
<title>flow_state_math_utils&#45;&gt;flow_state_solvers</title><style>.edge>path:hover{stroke-width:8}</style>
<path fill="none" stroke="black" d="M804.49,-160.33C804.49,-151.11 804.49,-139.49 804.49,-128.93"/>
<polygon fill="blue" stroke="black" points="807.99,-129.17 804.49,-119.17 800.99,-129.17 807.99,-129.17"/>
</g>
<!-- flow_state_math_utils_bisection -->
<g id="node22" class="node">
<title>flow_state_math_utils_bisection</title><style>.edge>path:hover{stroke-width:8}</style>
<ellipse fill="#c24747" stroke="black" cx="866.49" cy="-265.54" rx="45.25" ry="29.52"/>
<text xml:space="preserve" text-anchor="middle" x="866.49" y="-272.91" font-family="Helvetica,sans-Serif" font-size="10.00" fill="#ffffff">flow_state.</text>
<text xml:space="preserve" text-anchor="middle" x="866.49" y="-261.66" font-family="Helvetica,sans-Serif" font-size="10.00" fill="#ffffff">math_utils.</text>
<text xml:space="preserve" text-anchor="middle" x="866.49" y="-250.41" font-family="Helvetica,sans-Serif" font-size="10.00" fill="#ffffff">bisection</text>
</g>
<!-- flow_state_math_utils_bisection&#45;&gt;flow_state_math_utils -->
<g id="edge38" class="edge">
<title>flow_state_math_utils_bisection&#45;&gt;flow_state_math_utils</title><style>.edge>path:hover{stroke-width:8}</style>
<path fill="none" stroke="black" d="M847.55,-238.55C840.02,-228.22 831.37,-216.35 823.81,-205.97"/>
<polygon fill="#c24747" stroke="black" points="826.84,-204.19 818.13,-198.17 821.19,-208.31 826.84,-204.19"/>
</g>
<!-- flow_state_solvers&#45;&gt;flow_state -->
<g id="edge39" class="edge">
<title>flow_state_solvers&#45;&gt;flow_state</title><style>.edge>path:hover{stroke-width:8}</style>
<path fill="none" stroke="black" d="M815.15,-80.97C820.98,-71.49 828.33,-59.54 834.89,-48.87"/>
<polygon fill="blue" stroke="black" points="837.82,-50.79 840.07,-40.44 831.85,-47.13 837.82,-50.79"/>
</g>
<!-- flow_state_solvers&#45;&gt;flow_state_cli -->
<g id="edge40" class="edge">
<title>flow_state_solvers&#45;&gt;flow_state_cli</title><style>.edge>path:hover{stroke-width:8}</style>
<path fill="none" stroke="black" d="M836.72,-84.47C866.51,-71.68 910.87,-52.63 942.83,-38.91"/>
<polygon fill="blue" stroke="black" points="943.95,-42.23 951.76,-35.07 941.19,-35.8 943.95,-42.23"/>
</g>
<!-- flow_state_transport -->
<g id="node24" class="node">
<title>flow_state_transport</title><style>.edge>path:hover{stroke-width:8}</style>
<polygon fill="blue" stroke="black" points="656.49,-196.45 592.49,-196.45 592.49,-160.45 656.49,-160.45 656.49,-196.45"/>
<text xml:space="preserve" text-anchor="middle" x="624.49" y="-180.2" font-family="Helvetica,sans-Serif" font-size="10.00" fill="white">flow_state.</text>
<text xml:space="preserve" text-anchor="middle" x="624.49" y="-168.95" font-family="Helvetica,sans-Serif" font-size="10.00" fill="white">transport</text>
</g>
<!-- flow_state_transport&#45;&gt;flow_state_solvers -->
<g id="edge41" class="edge">
<title>flow_state_transport&#45;&gt;flow_state_solvers</title><style>.edge>path:hover{stroke-width:8}</style>
<path fill="none" stroke="black" d="M656.67,-163.66C686.01,-151.09 729.58,-132.42 761.82,-118.6"/>
<polygon fill="blue" stroke="black" points="763.08,-121.87 770.89,-114.71 760.32,-115.44 763.08,-121.87"/>
</g>
<!-- flow_state_transport_core -->
<g id="node25" class="node">
<title>flow_state_transport_core</title><style>.edge>path:hover{stroke-width:8}</style>
<ellipse fill="#ce3b3b" stroke="black" cx="793.49" cy="-360.58" rx="45.25" ry="29.52"/>
<text xml:space="preserve" text-anchor="middle" x="793.49" y="-367.96" font-family="Helvetica,sans-Serif" font-size="10.00" fill="#ffffff">flow_state.</text>
<text xml:space="preserve" text-anchor="middle" x="793.49" y="-356.71" font-family="Helvetica,sans-Serif" font-size="10.00" fill="#ffffff">transport.</text>
<text xml:space="preserve" text-anchor="middle" x="793.49" y="-345.46" font-family="Helvetica,sans-Serif" font-size="10.00" fill="#ffffff">core</text>
</g>
<!-- flow_state_transport_core&#45;&gt;flow_state_transport -->
<g id="edge42" class="edge">
<title>flow_state_transport_core&#45;&gt;flow_state_transport</title><style>.edge>path:hover{stroke-width:8}</style>
<path fill="none" stroke="black" d="M760.45,-340.04C742.39,-328.38 720.32,-312.48 703.49,-295.06 692.9,-284.11 692.6,-279.43 684.49,-266.54"/>
</g>
<!-- flow_state_transport_registry -->
<g id="node28" class="node">
<title>flow_state_transport_registry</title><style>.edge>path:hover{stroke-width:8}</style>
<polygon fill="blue" stroke="black" points="656.49,-286.41 592.49,-286.41 592.49,-244.66 656.49,-244.66 656.49,-286.41"/>
<text xml:space="preserve" text-anchor="middle" x="624.49" y="-272.91" font-family="Helvetica,sans-Serif" font-size="10.00" fill="white">flow_state.</text>
<text xml:space="preserve" text-anchor="middle" x="624.49" y="-261.66" font-family="Helvetica,sans-Serif" font-size="10.00" fill="white">transport.</text>
<text xml:space="preserve" text-anchor="middle" x="624.49" y="-250.41" font-family="Helvetica,sans-Serif" font-size="10.00" fill="white">registry</text>
</g>
<!-- flow_state_transport_core&#45;&gt;flow_state_transport_registry -->
<g id="edge43" class="edge">
<title>flow_state_transport_core&#45;&gt;flow_state_transport_registry</title><style>.edge>path:hover{stroke-width:8}</style>
<path fill="none" stroke="black" d="M758.41,-341.35C725.1,-324 678.89,-299.86 670.49,-295.06 669.06,-294.24 667.61,-293.41 666.15,-292.55"/>
<polygon fill="#ce3b3b" stroke="black" points="668.16,-289.68 657.78,-287.56 664.57,-295.69 668.16,-289.68"/>
</g>
<!-- flow_state_transport_keyes -->
<g id="node26" class="node">
<title>flow_state_transport_keyes</title><style>.edge>path:hover{stroke-width:8}</style>
<ellipse fill="#ce3b3b" stroke="black" cx="466.49" cy="-360.58" rx="45.25" ry="29.52"/>
<text xml:space="preserve" text-anchor="middle" x="466.49" y="-367.96" font-family="Helvetica,sans-Serif" font-size="10.00" fill="#ffffff">flow_state.</text>
<text xml:space="preserve" text-anchor="middle" x="466.49" y="-356.71" font-family="Helvetica,sans-Serif" font-size="10.00" fill="#ffffff">transport.</text>
<text xml:space="preserve" text-anchor="middle" x="466.49" y="-345.46" font-family="Helvetica,sans-Serif" font-size="10.00" fill="#ffffff">keyes</text>
</g>
<!-- flow_state_transport_keyes&#45;&gt;flow_state_transport -->
<g id="edge44" class="edge">
<title>flow_state_transport_keyes&#45;&gt;flow_state_transport</title><style>.edge>path:hover{stroke-width:8}</style>
<path fill="none" stroke="black" d="M564.49,-264.54C576.2,-243.91 591.67,-222.07 603.97,-205.68"/>
<polygon fill="#ce3b3b" stroke="black" points="606.61,-207.99 609.88,-197.92 601.04,-203.75 606.61,-207.99"/>
<path fill="none" stroke="black" d="M496.77,-338.61C518.89,-321.69 547.81,-295.92 564.49,-266.54"/>
</g>
<!-- flow_state_transport_keyes&#45;&gt;flow_state_transport_registry -->
<g id="edge45" class="edge">
<title>flow_state_transport_keyes&#45;&gt;flow_state_transport_registry</title><style>.edge>path:hover{stroke-width:8}</style>
<path fill="none" stroke="black" d="M499.98,-340.66C522.32,-327.95 552.29,-310.72 578.49,-295.06 579.9,-294.22 581.33,-293.35 582.78,-292.48"/>
<polygon fill="#ce3b3b" stroke="black" points="584.39,-295.6 591.11,-287.41 580.74,-289.62 584.39,-295.6"/>
</g>
<!-- flow_state_transport_power_law -->
<g id="node27" class="node">
<title>flow_state_transport_power_law</title><style>.edge>path:hover{stroke-width:8}</style>
<ellipse fill="#ce3b3b" stroke="black" cx="575.49" cy="-360.58" rx="45.25" ry="29.52"/>
<text xml:space="preserve" text-anchor="middle" x="575.49" y="-367.96" font-family="Helvetica,sans-Serif" font-size="10.00" fill="#ffffff">flow_state.</text>
<text xml:space="preserve" text-anchor="middle" x="575.49" y="-356.71" font-family="Helvetica,sans-Serif" font-size="10.00" fill="#ffffff">transport.</text>
<text xml:space="preserve" text-anchor="middle" x="575.49" y="-345.46" font-family="Helvetica,sans-Serif" font-size="10.00" fill="#ffffff">power_law</text>
</g>
<!-- flow_state_transport_power_law&#45;&gt;flow_state_transport -->
<g id="edge46" class="edge">
<title>flow_state_transport_power_law&#45;&gt;flow_state_transport</title><style>.edge>path:hover{stroke-width:8}</style>
<path fill="none" stroke="black" d="M563.83,-331.78C557.59,-312.31 553.25,-286.34 564.49,-266.54"/>
</g>
<!-- flow_state_transport_power_law&#45;&gt;flow_state_transport_registry -->
<g id="edge47" class="edge">
<title>flow_state_transport_power_law&#45;&gt;flow_state_transport_registry</title><style>.edge>path:hover{stroke-width:8}</style>
<path fill="none" stroke="black" d="M589.92,-332.17C595.8,-321.01 602.62,-308.07 608.63,-296.64"/>
<polygon fill="#ce3b3b" stroke="black" points="611.62,-298.49 613.18,-288.01 605.42,-295.23 611.62,-298.49"/>
</g>
<!-- flow_state_transport_registry&#45;&gt;flow_state_transport -->
<g id="edge48" class="edge">
<title>flow_state_transport_registry&#45;&gt;flow_state_transport</title><style>.edge>path:hover{stroke-width:8}</style>
<path fill="none" stroke="black" d="M624.49,-244.37C624.49,-233.54 624.49,-219.99 624.49,-208.08"/>
<polygon fill="blue" stroke="black" points="627.99,-208.39 624.49,-198.39 620.99,-208.39 627.99,-208.39"/>
</g>
<!-- flow_state_transport_Sutherland -->
<g id="node29" class="node">
<title>flow_state_transport_Sutherland</title><style>.edge>path:hover{stroke-width:8}</style>
<ellipse fill="#b65353" stroke="black" cx="757.49" cy="-265.54" rx="45.25" ry="29.52"/>
<text xml:space="preserve" text-anchor="middle" x="757.49" y="-272.91" font-family="Helvetica,sans-Serif" font-size="10.00" fill="#ffffff">flow_state.</text>
<text xml:space="preserve" text-anchor="middle" x="757.49" y="-261.66" font-family="Helvetica,sans-Serif" font-size="10.00" fill="#ffffff">transport.</text>
<text xml:space="preserve" text-anchor="middle" x="757.49" y="-250.41" font-family="Helvetica,sans-Serif" font-size="10.00" fill="#ffffff">Sutherland</text>
</g>
<!-- flow_state_transport_Sutherland&#45;&gt;flow_state_solvers -->
<g id="edge49" class="edge">
<title>flow_state_transport_Sutherland&#45;&gt;flow_state_solvers</title><style>.edge>path:hover{stroke-width:8}</style>
<path fill="none" stroke="black" d="M754.77,-235.8C753.68,-213.6 754.4,-182.46 763.49,-156.88 767.35,-146.03 773.99,-135.44 780.81,-126.41"/>
<polygon fill="#b65353" stroke="black" points="783.39,-128.79 786.94,-118.81 777.94,-124.4 783.39,-128.79"/>
</g>
<!-- flow_state_transport_sutherland -->
<g id="node30" class="node">
<title>flow_state_transport_sutherland</title><style>.edge>path:hover{stroke-width:8}</style>
<ellipse fill="#ce3b3b" stroke="black" cx="684.49" cy="-360.58" rx="45.25" ry="29.52"/>
<text xml:space="preserve" text-anchor="middle" x="684.49" y="-367.96" font-family="Helvetica,sans-Serif" font-size="10.00" fill="#ffffff">flow_state.</text>
<text xml:space="preserve" text-anchor="middle" x="684.49" y="-356.71" font-family="Helvetica,sans-Serif" font-size="10.00" fill="#ffffff">transport.</text>
<text xml:space="preserve" text-anchor="middle" x="684.49" y="-345.46" font-family="Helvetica,sans-Serif" font-size="10.00" fill="#ffffff">sutherland</text>
</g>
<!-- flow_state_transport_sutherland&#45;&gt;flow_state_transport -->
<g id="edge50" class="edge">
<title>flow_state_transport_sutherland&#45;&gt;flow_state_transport</title><style>.edge>path:hover{stroke-width:8}</style>
<path fill="none" stroke="black" d="M691.91,-331.37C695.41,-311.71 696.54,-285.68 684.49,-266.54"/>
<path fill="none" stroke="black" d="M684.49,-264.54C671.77,-244.34 656.2,-222.33 644.11,-205.76"/>
<polygon fill="#ce3b3b" stroke="black" points="647.08,-203.89 638.34,-197.91 641.44,-208.04 647.08,-203.89"/>
</g>
<!-- flow_state_transport_sutherland&#45;&gt;flow_state_transport_registry -->
<g id="edge51" class="edge">
<title>flow_state_transport_sutherland&#45;&gt;flow_state_transport_registry</title><style>.edge>path:hover{stroke-width:8}</style>
<path fill="none" stroke="black" d="M667.45,-333.17C660.04,-321.67 651.31,-308.14 643.67,-296.28"/>
<polygon fill="#ce3b3b" stroke="black" points="646.74,-294.58 638.38,-288.08 640.85,-298.38 646.74,-294.58"/>
</g>
<!-- flow_state_turbulence -->
<g id="node31" class="node">
<title>flow_state_turbulence</title><style>.edge>path:hover{stroke-width:8}</style>
<ellipse fill="#ce3b3b" stroke="black" cx="975.49" cy="-265.54" rx="45.25" ry="21.57"/>
<text xml:space="preserve" text-anchor="middle" x="975.49" y="-267.29" font-family="Helvetica,sans-Serif" font-size="10.00" fill="#ffffff">flow_state.</text>
<text xml:space="preserve" text-anchor="middle" x="975.49" y="-256.04" font-family="Helvetica,sans-Serif" font-size="10.00" fill="#ffffff">turbulence</text>
</g>
<!-- flow_state_turbulence&#45;&gt;flow_state_core -->
<g id="edge52" class="edge">
<title>flow_state_turbulence&#45;&gt;flow_state_core</title><style>.edge>path:hover{stroke-width:8}</style>
<path fill="none" stroke="black" d="M1001.76,-247.73C1021.81,-234.9 1049.67,-217.08 1071.9,-202.86"/>
<polygon fill="#ce3b3b" stroke="black" points="1073.54,-205.96 1080.08,-197.63 1069.77,-200.07 1073.54,-205.96"/>
</g>
<!-- flow_state_turbulence&#45;&gt;flow_state_solvers -->
<g id="edge53" class="edge">
<title>flow_state_turbulence&#45;&gt;flow_state_solvers</title><style>.edge>path:hover{stroke-width:8}</style>
<path fill="none" stroke="black" d="M947.76,-248.09C928.64,-236.05 903.21,-218.62 883.49,-200.02 870.59,-187.86 842.82,-151.76 823.89,-126.51"/>
<polygon fill="#ce3b3b" stroke="black" points="826.81,-124.57 818.02,-118.66 821.2,-128.76 826.81,-124.57"/>
</g>
<!-- flow_state_units -->
<g id="node32" class="node">
<title>flow_state_units</title><style>.edge>path:hover{stroke-width:8}</style>
<ellipse fill="#c24747" stroke="black" cx="937.49" cy="-178.45" rx="45.25" ry="21.57"/>
<text xml:space="preserve" text-anchor="middle" x="937.49" y="-180.2" font-family="Helvetica,sans-Serif" font-size="10.00" fill="#ffffff">flow_state.</text>
<text xml:space="preserve" text-anchor="middle" x="937.49" y="-168.95" font-family="Helvetica,sans-Serif" font-size="10.00" fill="#ffffff">units</text>
</g>
<!-- flow_state_units&#45;&gt;flow_state_solvers -->
<g id="edge54" class="edge">
<title>flow_state_units&#45;&gt;flow_state_solvers</title><style>.edge>path:hover{stroke-width:8}</style>
<path fill="none" stroke="black" d="M909.28,-161.09C890.41,-150.15 865.29,-135.58 844.38,-123.45"/>
<polygon fill="#c24747" stroke="black" points="846.22,-120.47 835.81,-118.48 842.7,-126.53 846.22,-120.47"/>
</g>
</g>
</svg>
